<svg id="Layer_1" data-name="Layer 1" xmlns="http://www.w3.org/2000/svg" xmlns:xlink="http://www.w3.org/1999/xlink" viewBox="0 0 601.15 122.96"><defs><style>.cls-1{fill:#333;}.cls-2{fill:#f3bb30;}.cls-3{clip-path:url(#clip-path);}.cls-4{fill:#4e55a1;}.cls-5{fill:#4f55a1;}</style><clipPath id="clip-path" transform="translate(-117.44 -236.16)"><path class="cls-1" d="M187.79,291.77l-1.41-1.41L155,321.7a4,4,0,0,1-5.61,0l-6.65-6.65a20.33,20.33,0,0,1,0-28.7L169,260.1A13.54,13.54,0,0,0,169,241h0L133.2,276.77a33.89,33.89,0,0,0,0,47.86l25.74,25.73a13.54,13.54,0,0,0,19.15,0h0l-16.28-16.28,26-26A11.56,11.56,0,0,0,187.79,291.77Z"/></clipPath></defs><path class="cls-2" d="M204.37,276.22,180,251.8h0a13.54,13.54,0,0,0-3,14.69L150.3,293.25a11.55,11.55,0,0,0,0,16.33l1.42,1.41,34.13-34.13,8.94,8.94a20.3,20.3,0,0,1,0,28.7l-21.22,21.23,9.58,9.58,21.22-21.23A33.87,33.87,0,0,0,204.37,276.22Z" transform="translate(-117.44 -236.16)"/><path class="cls-1" d="M187.79,291.77l-1.41-1.41L155,321.7a4,4,0,0,1-5.61,0l-6.65-6.65a20.33,20.33,0,0,1,0-28.7L169,260.1A13.54,13.54,0,0,0,169,241h0L133.2,276.77a33.89,33.89,0,0,0,0,47.86l25.74,25.73a13.54,13.54,0,0,0,19.15,0h0l-16.28-16.28,26-26A11.56,11.56,0,0,0,187.79,291.77Z" transform="translate(-117.44 -236.16)"/><g class="cls-3"><path class="cls-4" d="M187.37,291.27l-1.53-1.53-34,34a4.31,4.31,0,0,1-6.09,0l-7.21-7.21a22,22,0,0,1,0-31.12L167,256.93a14.68,14.68,0,0,0,0-20.77h0L128.17,275a36.74,36.74,0,0,0,0,51.9l27.91,27.91a14.7,14.7,0,0,0,20.77,0h0l-17.66-17.66L187.37,309A12.54,12.54,0,0,0,187.37,291.27Z" transform="translate(-117.44 -236.16)"/></g><path class="cls-5" d="M247.91,303.89V336.7H235.35V259.1H259v10.65H247.91v23.5h9.26v10.64Z" transform="translate(-117.44 -236.16)"/><path class="cls-5" d="M272.48,321.85V274c0-9.76,5.07-15.74,15.2-15.74s15.21,6,15.21,15.74v47.89c0,9.75-5.07,15.74-15.21,15.74S272.48,331.6,272.48,321.85Zm17.85,1.66V272.3c0-1.78-.55-3.33-2.65-3.33S285,270.52,285,272.3v51.21c0,1.77.55,3.33,2.64,3.33S290.33,325.28,290.33,323.51Z" transform="translate(-117.44 -236.16)"/><path class="cls-5" d="M330.43,306.77V336.7H317.87V259.1h14.88c9.36,0,14.1,5.55,14.1,14.64V291c0,4.32-1.87,7.65-5.51,9.53,3.64,2.22,5.51,6.21,5.51,11.42v14a60.62,60.62,0,0,0,1,10.75H335.06a46.24,46.24,0,0,1-1-10.75V310.1c0-1.78-.66-3.33-2.64-3.33Zm3.64-14.63V273c0-1.77-.66-3.33-2.64-3.33h-1v25.83h1C333.52,295.46,334.07,293.91,334.07,292.14Z" transform="translate(-117.44 -236.16)"/><path class="cls-5" d="M379.9,269.75V336.7H367.34V269.75h-7.6V259.1h27.88v10.65Z" transform="translate(-117.44 -236.16)"/><path class="cls-5" d="M431.47,259.1v62.75c0,9.75-5.07,15.74-15,15.74s-15-6-15-15.74V259.1h12.56v64.74c0,1.78.55,3.33,2.53,3.33s2.54-1.55,2.54-3.33V259.1Z" transform="translate(-117.44 -236.16)"/><path class="cls-5" d="M458,297V336.7H446.67V259.1H457L466,296.46V259.1H477.3v77.6h-9.7Z" transform="translate(-117.44 -236.16)"/><path class="cls-5" d="M505.28,336.7H492.72V259.1h12.56Z" transform="translate(-117.44 -236.16)"/><path class="cls-5" d="M539.55,269.75V336.7H527V269.75h-7.61V259.1h27.88v10.65Z" transform="translate(-117.44 -236.16)"/><path class="cls-5" d="M580.86,336.7H568.3V306.88l-9.69-47.78h11.67l4.41,27.83,4.41-27.83h11.35l-9.59,47.23Z" transform="translate(-117.44 -236.16)"/><path class="cls-2" d="M614.47,297V336.7H603.12V259.1h10.35l8.93,37.36V259.1h11.35v77.6h-9.7Z" transform="translate(-117.44 -236.16)"/><path class="cls-2" d="M662.61,314.86l-4.74,21.84H646.52l9.59-39-9.36-38.58h11.9l4.51,21.29,4.41-21.29h11.35l-9.48,37.47,10,40.13H667.35Z" transform="translate(-117.44 -236.16)"/><path class="cls-2" d="M710.87,269.75V336.7H698.31V269.75H690.7V259.1h27.88v10.65Z" transform="translate(-117.44 -236.16)"/></svg>